<svg width="25" height="25" viewBox="0 0 25 25" fill="none" xmlns="http://www.w3.org/2000/svg">
<path fill-rule="evenodd" clip-rule="evenodd" d="M17.4023 5.29883C18.3571 5.29883 19.2731 5.67838 19.9482 6.35352C20.6232 7.02855 21.0028 7.94385 21.0029 8.89844C21.0029 9.63624 20.7748 10.3501 20.3604 10.9482L20.6318 11.2207C21.6375 12.2265 22.203 13.5904 22.2031 15.0127V17.5996C22.2031 17.7587 22.1399 17.9119 22.0273 18.0244C21.9148 18.1369 21.7616 18.2002 21.6025 18.2002C21.4436 18.2001 21.2911 18.1367 21.1787 18.0244C21.0662 17.9119 21.0029 17.7587 21.0029 17.5996V15.0127C21.0028 13.9087 20.5638 12.8501 19.7832 12.0693L19.5215 11.8076C18.9096 12.2533 18.1688 12.499 17.4023 12.499C16.9298 12.499 16.462 12.4054 16.0254 12.2246C15.8778 12.1635 15.7353 12.0915 15.5977 12.0117C15.6009 12.074 15.6025 12.1365 15.6025 12.1992C15.6025 13.1539 15.2238 14.07 14.5488 14.7451C14.2415 15.0524 13.8831 15.2968 13.4951 15.4736C14.0443 15.6824 14.5492 16.0053 14.9727 16.4287C15.7602 17.2163 16.203 18.2847 16.2031 19.3984V20.959C16.2031 21.1179 16.1396 21.2704 16.0273 21.3828C15.9148 21.4953 15.7617 21.5586 15.6025 21.5586C15.4435 21.5585 15.2912 21.4953 15.1787 21.3828C15.0662 21.2703 15.003 21.118 15.0029 20.959V19.3984C15.0029 19.0047 14.9251 18.6148 14.7744 18.251C14.6236 17.887 14.4026 17.5559 14.124 17.2773C13.8455 16.9988 13.5143 16.7777 13.1504 16.627C12.7866 16.4763 12.3967 16.3985 12.0029 16.3984C11.2074 16.3984 10.4444 16.7149 9.88184 17.2773C9.31932 17.8399 9.00303 18.6029 9.00293 19.3984V20.959C9.00289 21.118 8.9395 21.2703 8.82715 21.3828C8.71463 21.4953 8.56147 21.5586 8.40234 21.5586C8.24335 21.5585 8.09095 21.4952 7.97852 21.3828C7.8661 21.2703 7.80278 21.118 7.80273 20.959V19.3984C7.80284 18.2847 8.24564 17.2163 9.0332 16.4287C9.45648 16.0055 9.96091 15.6824 10.5098 15.4736C10.122 15.2968 9.76418 15.0523 9.45703 14.7451C8.78199 14.07 8.40332 13.1539 8.40332 12.1992C8.40333 12.1365 8.40397 12.074 8.40723 12.0117C8.2698 12.0914 8.12786 12.1636 7.98047 12.2246C7.5437 12.4055 7.0753 12.499 6.60254 12.499C6.07379 12.499 5.55746 12.3816 5.08691 12.1631L4.82227 12.4287C4.04182 13.2094 3.60277 14.2682 3.60254 15.3721V17.5996C3.60254 17.7587 3.53928 17.9119 3.42676 18.0244C3.31429 18.1367 3.16185 18.2002 3.00293 18.2002C2.8438 18.2002 2.69065 18.1369 2.57812 18.0244C2.46561 17.9119 2.40234 17.7587 2.40234 17.5996V15.3721C2.40264 13.95 2.96813 12.5857 3.97363 11.5801L4.08301 11.4697C4.07439 11.4613 4.06518 11.4529 4.05664 11.4443C3.38168 10.7692 3.00293 9.85309 3.00293 8.89844C3.00303 7.94397 3.38183 7.02852 4.05664 6.35352C4.73174 5.67842 5.64781 5.29887 6.60254 5.29883C7.0753 5.29883 7.5437 5.39233 7.98047 5.57324C8.41715 5.75416 8.81421 6.01929 9.14844 6.35352C9.48262 6.68776 9.74783 7.08481 9.92871 7.52148C10.1095 7.95805 10.2031 8.42592 10.2031 8.89844C10.2031 8.96059 10.2005 9.02303 10.1973 9.08496C10.7412 8.76967 11.3634 8.59961 12.0029 8.59961C12.6419 8.59963 13.2631 8.77017 13.8066 9.08496C13.8034 9.02305 13.8027 8.96057 13.8027 8.89844C13.8028 8.42586 13.8963 7.9581 14.0771 7.52148C14.2581 7.08471 14.5231 6.68781 14.8574 6.35352C15.1917 6.01922 15.5886 5.75416 16.0254 5.57324C16.462 5.39241 16.9298 5.29888 17.4023 5.29883ZM12.0029 9.7998C11.3664 9.7998 10.7558 10.0528 10.3057 10.5029C9.85582 10.9529 9.60264 11.563 9.60254 12.1992C9.60254 12.8357 9.85567 13.4464 10.3057 13.8965C10.7558 14.3466 11.3664 14.5996 12.0029 14.5996C12.6394 14.5996 13.2501 14.3465 13.7002 13.8965C14.1501 13.4464 14.4023 12.8356 14.4023 12.1992C14.4022 11.563 14.15 10.9529 13.7002 10.5029C13.2501 10.0529 12.6394 9.79983 12.0029 9.7998ZM6.60254 6.49902C5.96607 6.49906 5.35533 6.7521 4.90527 7.20215C4.45551 7.65211 4.20323 8.26223 4.20312 8.89844C4.20312 9.53483 4.45535 10.1456 4.90527 10.5957C5.35533 11.0458 5.96607 11.2988 6.60254 11.2988C7.23906 11.2988 7.84972 11.0458 8.2998 10.5957C8.74982 10.1456 9.00293 9.5349 9.00293 8.89844C9.00283 8.26216 8.74966 7.65212 8.2998 7.20215C7.84972 6.75206 7.23906 6.49902 6.60254 6.49902ZM17.4023 6.49902C16.766 6.49913 16.1561 6.75215 15.7061 7.20215C15.2561 7.65214 15.003 8.26206 15.0029 8.89844C15.0029 9.53496 15.256 10.1456 15.7061 10.5957C16.156 11.0456 16.766 11.2987 17.4023 11.2988C18.0389 11.2988 18.6495 11.0458 19.0996 10.5957C19.5497 10.1456 19.8027 9.53496 19.8027 8.89844C19.8026 8.26211 19.5495 7.65213 19.0996 7.20215C18.6495 6.75206 18.0389 6.49902 17.4023 6.49902Z" fill="#2563F5"/>
</svg>
