<svg width="24" height="25" viewBox="0 0 24 25" fill="none" xmlns="http://www.w3.org/2000/svg">
<path d="M10.9241 10.8529C11.0367 10.7403 11.1 10.5875 11.1 10.4281C11.1 10.2688 11.0367 10.116 10.9241 10.0033C10.8114 9.89066 10.6586 9.82737 10.4993 9.82737C10.3399 9.82737 10.1871 9.89066 10.0745 10.0033L8.38007 11.6977L7.90367 11.2633C7.7853 11.1622 7.63223 11.111 7.47681 11.1206C7.32139 11.1302 7.1758 11.1998 7.07079 11.3148C6.96578 11.4298 6.90958 11.5811 6.91408 11.7367C6.91857 11.8924 6.9834 12.0402 7.09487 12.1489L7.99487 12.9709C8.1089 13.0747 8.25853 13.1307 8.41271 13.1271C8.56689 13.1235 8.71377 13.0607 8.82287 12.9517L10.9241 10.8529ZM10.9241 16.0033C10.9799 16.0591 11.0243 16.1253 11.0545 16.1982C11.0848 16.2711 11.1003 16.3492 11.1003 16.4281C11.1003 16.507 11.0848 16.5852 11.0545 16.6581C11.0243 16.731 10.9799 16.7972 10.9241 16.8529L8.82407 18.9529C8.71476 19.0621 8.56754 19.1249 8.41308 19.1283C8.25862 19.1316 8.10881 19.0753 7.99487 18.9709L7.09487 18.1489C6.9834 18.0402 6.91857 17.8924 6.91408 17.7367C6.90958 17.5811 6.96578 17.4298 7.07079 17.3148C7.1758 17.1998 7.32139 17.1302 7.47681 17.1206C7.63223 17.111 7.7853 17.1622 7.90367 17.2633L8.38007 17.6989L10.0745 16.0033C10.1302 15.9474 10.1964 15.9031 10.2693 15.8729C10.3422 15.8426 10.4203 15.8271 10.4993 15.8271C10.5782 15.8271 10.6563 15.8426 10.7292 15.8729C10.8021 15.9031 10.8683 15.9474 10.9241 16.0033ZM12.8993 16.7281C12.7401 16.7281 12.5875 16.7913 12.475 16.9039C12.3625 17.0164 12.2993 17.169 12.2993 17.3281C12.2993 17.4873 12.3625 17.6399 12.475 17.7524C12.5875 17.8649 12.7401 17.9281 12.8993 17.9281H15.8993C16.0584 17.9281 16.211 17.8649 16.3235 17.7524C16.4361 17.6399 16.4993 17.4873 16.4993 17.3281C16.4993 17.169 16.4361 17.0164 16.3235 16.9039C16.211 16.7913 16.0584 16.7281 15.8993 16.7281H12.8993ZM12.2993 11.3281C12.2993 11.169 12.3625 11.0164 12.475 10.9039C12.5875 10.7913 12.7401 10.7281 12.8993 10.7281H15.8993C16.0584 10.7281 16.211 10.7913 16.3235 10.9039C16.4361 11.0164 16.4993 11.169 16.4993 11.3281C16.4993 11.4873 16.4361 11.6399 16.3235 11.7524C16.211 11.8649 16.0584 11.9281 15.8993 11.9281H12.8993C12.7401 11.9281 12.5875 11.8649 12.475 11.7524C12.3625 11.6399 12.2993 11.4873 12.2993 11.3281ZM9.89927 3.82813C9.52688 3.82793 9.16359 3.94324 8.85948 4.15816C8.55537 4.37308 8.3254 4.67703 8.20127 5.02813H6.29927C5.82188 5.02813 5.36404 5.21777 5.02648 5.55533C4.68891 5.8929 4.49927 6.35074 4.49927 6.82813V21.2281C4.49927 21.7055 4.68891 22.1634 5.02648 22.5009C5.36404 22.8385 5.82188 23.0281 6.29927 23.0281H17.0993C17.5767 23.0281 18.0345 22.8385 18.3721 22.5009C18.7096 22.1634 18.8993 21.7055 18.8993 21.2281V6.82813C18.8993 6.35074 18.7096 5.8929 18.3721 5.55533C18.0345 5.21777 17.5767 5.02813 17.0993 5.02813H15.1973C15.0731 4.67703 14.8432 4.37308 14.5391 4.15816C14.2349 3.94324 13.8717 3.82793 13.4993 3.82813H9.89927ZM9.29927 5.62813C9.29927 5.469 9.36248 5.31638 9.475 5.20386C9.58752 5.09134 9.74014 5.02813 9.89927 5.02813H13.4993C13.6584 5.02813 13.811 5.09134 13.9235 5.20386C14.0361 5.31638 14.0993 5.469 14.0993 5.62813C14.0993 5.78726 14.0361 5.93987 13.9235 6.05239C13.811 6.16491 13.6584 6.22813 13.4993 6.22813H9.89927C9.74014 6.22813 9.58752 6.16491 9.475 6.05239C9.36248 5.93987 9.29927 5.78726 9.29927 5.62813ZM6.29927 6.22813H8.20127C8.3254 6.57922 8.55537 6.88317 8.85948 7.09809C9.16359 7.31301 9.52688 7.42832 9.89927 7.42813H13.4993C13.8717 7.42832 14.2349 7.31301 14.5391 7.09809C14.8432 6.88317 15.0731 6.57922 15.1973 6.22813H17.0993C17.2584 6.22813 17.411 6.29134 17.5235 6.40386C17.6361 6.51638 17.6993 6.669 17.6993 6.82813V21.2281C17.6993 21.3873 17.6361 21.5399 17.5235 21.6524C17.411 21.7649 17.2584 21.8281 17.0993 21.8281H6.29927C6.14014 21.8281 5.98753 21.7649 5.875 21.6524C5.76248 21.5399 5.69927 21.3873 5.69927 21.2281V6.82813C5.69927 6.669 5.76248 6.51638 5.875 6.40386C5.98753 6.29134 6.14014 6.22813 6.29927 6.22813Z" fill="#2563F5"/>
</svg>
