<svg width="25" height="25" viewBox="0 0 25 25" fill="none" xmlns="http://www.w3.org/2000/svg">
<g clip-path="url(#clip0_666_30769)">
<path d="M3.679 16.3383L4.714 5.46633H9.464L10.336 14.6153M8.505 1.85533C9.53722 1.83566 10.5607 2.04787 11.5 2.47633C18.929 5.64833 22 1.73633 22 1.73633M1.25 24.2163H23.75V12.5763C23.7497 12.4071 23.7107 12.2402 23.6361 12.0884C23.5614 11.9366 23.453 11.8038 23.3192 11.7003C23.1854 11.5967 23.0296 11.5252 22.8639 11.491C22.6982 11.4569 22.5269 11.4611 22.363 11.5033L2 16.7763C1.7854 16.832 1.59538 16.9573 1.4598 17.1328C1.32423 17.3082 1.25078 17.5236 1.251 17.7453L1.25 24.2163Z" stroke="#2563F5" stroke-width="1.5" stroke-linecap="round" stroke-linejoin="round"/>
<path d="M11.75 20.2178H10.25M6.75 20.2178H5.25M20.25 24.2188H15.25V19.7188C15.25 19.4535 15.3554 19.1992 15.5429 19.0116C15.7304 18.8241 15.9848 18.7188 16.25 18.7188H19.25C19.5152 18.7188 19.7696 18.8241 19.9571 19.0116C20.1446 19.1992 20.25 19.4535 20.25 19.7188V24.2188Z" stroke="#2563F5" stroke-width="1.5" stroke-linecap="round" stroke-linejoin="round"/>
</g>
<defs>
<clipPath id="clip0_666_30769">
<rect width="24" height="24" fill="white" transform="translate(0.5 0.976562)"/>
</clipPath>
</defs>
</svg>
