<svg width="25" height="25" viewBox="0 0 25 25" fill="none" xmlns="http://www.w3.org/2000/svg">
<path d="M11.4423 20.739H17.0703C19.9353 20.739 21.3683 20.739 22.0653 19.979C22.2603 19.7684 22.4121 19.5218 22.5123 19.253C22.8663 18.3 22.1703 17.1 20.7783 14.699M11.4423 20.739L14.3593 18.502M11.4423 20.739L14.3593 22.976M19.0933 11.791L16.1103 6.64697C14.8343 4.44397 14.1953 3.34297 13.3033 3.07597C12.8502 2.94082 12.3675 2.94082 11.9143 3.07597C11.0223 3.34297 10.3843 4.44397 9.10734 6.64597M19.0933 11.791L15.6153 10.481M19.0933 11.791L19.6623 8.25097M7.42234 9.55397L4.33834 14.873C3.03834 17.116 2.38834 18.237 2.66734 19.137C2.77534 19.487 2.97134 19.807 3.23834 20.069C3.92534 20.739 5.26334 20.739 7.94034 20.739M7.42334 9.55397L7.96434 13.098M7.42334 9.55297L3.93334 10.839" stroke="#2563F5" stroke-width="1.5" stroke-linecap="round" stroke-linejoin="round"/>
</svg>
