<svg width="25" height="25" viewBox="0 0 25 25" fill="none" xmlns="http://www.w3.org/2000/svg">
<g clip-path="url(#clip0_666_30803)">
<path d="M13.3534 3.5625V5.3125H15.3284C15.6794 5.3125 16.0224 5.4185 16.3124 5.6155L18.0094 6.7695C18.0514 6.7975 18.0981 6.81183 18.1494 6.8125H22.2514C22.4503 6.8125 22.6411 6.89152 22.7818 7.03217C22.9224 7.17282 23.0014 7.36359 23.0014 7.5625C23.0014 7.76141 22.9224 7.95218 22.7818 8.09283C22.6411 8.23348 22.4503 8.3125 22.2514 8.3125H20.6734L24.0394 15.9925C24.1068 16.1461 24.1207 16.3178 24.079 16.4802C24.0373 16.6426 23.9424 16.7864 23.8094 16.8885C23.7094 16.9625 23.6061 17.0312 23.4994 17.0945C23.2463 17.2468 22.9822 17.3801 22.7094 17.4935C21.8049 17.8717 20.8339 18.0652 19.8534 18.0625C18.8733 18.0668 17.9023 17.8736 16.9984 17.4945C16.7256 17.3808 16.4616 17.2471 16.2084 17.0945C16.1021 17.0335 15.9995 16.966 15.9014 16.8925L15.8964 16.8885C15.7635 16.7864 15.6685 16.6426 15.6268 16.4802C15.5852 16.3178 15.5991 16.1461 15.6664 15.9925L19.0344 8.3125H18.1484C17.7974 8.3125 17.4544 8.2065 17.1644 8.0095L15.4674 6.8555C15.4261 6.82751 15.3773 6.81254 15.3274 6.8125H13.3534V21.3125H17.8404C18.0393 21.3125 18.2301 21.3915 18.3708 21.5322C18.5114 21.6728 18.5904 21.8636 18.5904 22.0625C18.5904 22.2614 18.5114 22.4522 18.3708 22.5928C18.2301 22.7335 18.0393 22.8125 17.8404 22.8125H7.36643C7.16752 22.8125 6.97675 22.7335 6.8361 22.5928C6.69545 22.4522 6.61643 22.2614 6.61643 22.0625C6.61643 21.8636 6.69545 21.6728 6.8361 21.5322C6.97675 21.3915 7.16752 21.3125 7.36643 21.3125H11.8534V6.8125H9.87843C9.82852 6.81254 9.77976 6.82751 9.73843 6.8555L8.04243 8.0095C7.75243 8.2065 7.40943 8.3125 7.05843 8.3125H6.17243L9.54043 15.9925C9.60562 16.1417 9.62048 16.3081 9.58278 16.4665C9.54508 16.6248 9.45685 16.7667 9.33143 16.8705C9.25143 16.9355 9.17143 16.9965 9.02143 17.0935C8.76868 17.2575 8.50393 17.4023 8.22943 17.5265C7.32649 17.9375 6.34552 18.149 5.35343 18.1465C4.36134 18.149 3.38038 17.9375 2.47743 17.5265C2.20293 17.4023 1.93819 17.2575 1.68543 17.0935C1.57899 17.0248 1.47587 16.951 1.37643 16.8725C1.25175 16.7677 1.16404 16.6256 1.12623 16.4672C1.08842 16.3087 1.10251 16.1423 1.16643 15.9925L4.53343 8.3125H2.95643C2.75752 8.3125 2.56675 8.23348 2.4261 8.09283C2.28545 7.95218 2.20643 7.76141 2.20643 7.5625C2.20643 7.36359 2.28545 7.17282 2.4261 7.03217C2.56675 6.89152 2.75752 6.8125 2.95643 6.8125H7.05843C7.1091 6.8125 7.1561 6.79817 7.19943 6.7695L8.89443 5.6155C9.18443 5.4175 9.52843 5.3125 9.87943 5.3125H11.8534V3.5625C11.8534 3.36359 11.9325 3.17282 12.0731 3.03217C12.2138 2.89152 12.4045 2.8125 12.6034 2.8125C12.8023 2.8125 12.9931 2.89152 13.1338 3.03217C13.2744 3.17282 13.3534 3.36359 13.3534 3.5625ZM2.79643 16.0105C3.58326 16.43 4.46174 16.6482 5.35343 16.6455C6.24512 16.6482 7.1236 16.43 7.91043 16.0105L5.35343 10.1805L2.79643 16.0105ZM17.3064 15.9865C17.3884 16.0265 17.4801 16.0685 17.5814 16.1125C18.1114 16.3355 18.8864 16.5625 19.8534 16.5625C20.735 16.5649 21.6057 16.368 22.4004 15.9865L19.8534 10.1795L17.3064 15.9865Z" fill="#2563F5"/>
</g>
<defs>
<clipPath id="clip0_666_30803">
<rect width="24" height="24" fill="white" transform="translate(0.603516 0.8125)"/>
</clipPath>
</defs>
</svg>
