<svg width="25" height="25" viewBox="0 0 25 25" fill="none" xmlns="http://www.w3.org/2000/svg">
<path d="M11.4992 11.8127L6.49921 6.81271M5.49921 8.31271L7.99921 5.81271L4.99921 4.31271L3.99921 5.31271L5.49921 8.31271ZM20.4742 9.78771C20.9543 9.30802 21.2846 8.6991 21.4249 8.03508C21.5651 7.37106 21.5093 6.68058 21.2642 6.04771L19.8422 7.46971H17.8422V5.46971L19.2642 4.04771C18.6313 3.80205 17.9406 3.74577 17.2763 3.88572C16.6119 4.02568 16.0026 4.35583 15.5226 4.83595C15.0426 5.31607 14.7126 5.92543 14.5728 6.58979C14.433 7.25416 14.4894 7.94485 14.7352 8.57771L8.26521 15.0487C7.63235 14.8029 6.94166 14.7465 6.2773 14.8863C5.61293 15.0261 5.00357 15.3561 4.52345 15.8361C4.04333 16.3161 3.71318 16.9254 3.57322 17.5898C3.43327 18.2541 3.48955 18.9448 3.73521 19.5777L5.15621 18.1557H7.15621V20.1557L5.73421 21.5777C6.36696 21.8234 7.05749 21.8797 7.72171 21.7399C8.38593 21.6002 8.99517 21.2702 9.47524 20.7904C9.9553 20.3105 10.2855 19.7014 10.4256 19.0373C10.5656 18.3731 10.5096 17.6826 10.2642 17.0497L16.7362 10.5777C17.3688 10.8224 18.0589 10.878 18.7225 10.7377C19.3861 10.5975 19.9947 10.2674 20.4742 9.78771Z" stroke="#2563F5" stroke-width="1.5" stroke-linecap="round" stroke-linejoin="round"/>
<path d="M12.2969 15.3124L17.9009 20.9164C18.0263 21.042 18.1752 21.1417 18.3392 21.2097C18.5031 21.2777 18.6789 21.3127 18.8564 21.3127C19.0339 21.3127 19.2096 21.2777 19.3736 21.2097C19.5375 21.1417 19.6865 21.042 19.8119 20.9164L20.6039 20.1244C20.7295 19.999 20.8292 19.85 20.8972 19.6861C20.9652 19.5221 21.0002 19.3464 21.0002 19.1689C21.0002 18.9914 20.9652 18.8156 20.8972 18.6517C20.8292 18.4877 20.7295 18.3388 20.6039 18.2134L14.9999 12.6094" stroke="#2563F5" stroke-width="1.5" stroke-linecap="round" stroke-linejoin="round"/>
</svg>
