<svg width="48" height="50" viewBox="0 0 48 50" fill="none" xmlns="http://www.w3.org/2000/svg">
<path d="M9 24.1306C9.55228 24.1306 10 24.5783 10 25.1306V33.1306C10.0001 35.8919 12.2387 38.1306 15 38.1306H20.5859L17.9287 35.4734C17.5385 35.0829 17.5385 34.4498 17.9287 34.0593C18.3191 33.6689 18.9522 33.6691 19.3428 34.0593L23.707 38.4236C24.0975 38.8141 24.0975 39.4472 23.707 39.8377L19.3428 44.2019C18.9522 44.5919 18.3191 44.5922 17.9287 44.2019C17.5383 43.8116 17.5387 43.1784 17.9287 42.7879L20.5859 40.1306H15C11.1341 40.1306 8.00015 36.9965 8 33.1306V25.1306C8 24.5784 8.44775 24.1307 9 24.1306Z" fill="#3131FF"/>
<path fill-rule="evenodd" clip-rule="evenodd" d="M33 30.1306C35.2091 30.1306 37 31.9215 37 34.1306C36.9999 36.3397 35.2091 38.1306 33 38.1306C30.7909 38.1306 29.0001 36.3397 29 34.1306C29 31.9215 30.7909 30.1306 33 30.1306ZM33 32.1306C31.8954 32.1306 31 33.0261 31 34.1306C31.0001 35.2351 31.8955 36.1306 33 36.1306C34.1045 36.1306 34.9999 35.2351 35 34.1306C35 33.0261 34.1046 32.1306 33 32.1306Z" fill="#3131FF"/>
<path fill-rule="evenodd" clip-rule="evenodd" d="M33 26.1306C37.4183 26.1306 41 29.7124 41 34.1306C40.9999 38.5488 37.4182 42.1306 33 42.1306C28.5818 42.1306 25.0001 38.5488 25 34.1306C25 29.7124 28.5817 26.1306 33 26.1306ZM33 28.1306C29.6863 28.1306 27 30.8169 27 34.1306C27.0001 37.4442 29.6864 40.1306 33 40.1306C36.3136 40.1306 38.9999 37.4442 39 34.1306C39 30.8169 36.3137 28.1306 33 28.1306Z" fill="#3131FF"/>
<path d="M28.6572 6.05935C29.0478 5.66912 29.6809 5.66892 30.0713 6.05935C30.4616 6.44978 30.4615 7.08291 30.0713 7.47341L27.4141 10.1306H33C36.866 10.1307 40 13.2647 40 17.1306V25.1306C39.9999 25.6828 39.5522 26.1306 39 26.1306C38.4478 26.1306 38.0001 25.6828 38 25.1306V17.1306C38 14.3692 35.7614 12.1307 33 12.1306H27.4141L30.0713 14.7879C30.4614 15.1784 30.4617 15.8115 30.0713 16.2019C29.6809 16.5922 29.0478 16.592 28.6572 16.2019L24.293 11.8377C23.9025 11.4472 23.9025 10.8141 24.293 10.4236L28.6572 6.05935Z" fill="#3131FF"/>
<path fill-rule="evenodd" clip-rule="evenodd" d="M15 8.13063C19.4183 8.13063 23 11.7124 23 16.1306C22.9999 20.5488 19.4182 24.1306 15 24.1306C10.5818 24.1306 7.00013 20.5488 7 16.1306C7 11.7124 10.5817 8.13063 15 8.13063ZM15 10.1306C11.6863 10.1306 9 12.8169 9 16.1306C9.00013 19.4442 11.6864 22.1306 15 22.1306C18.3136 22.1306 20.9999 19.4442 21 16.1306C21 12.8169 18.3137 10.1306 15 10.1306Z" fill="#3131FF"/>
</svg>
