<svg width="48" height="47" viewBox="0 0 48 47" fill="none" xmlns="http://www.w3.org/2000/svg">
<path fill-rule="evenodd" clip-rule="evenodd" d="M19.5 5.20577C22.2846 3.59808 25.7154 3.59808 28.5 5.20577L36.0889 9.58663C36.4369 9.78759 36.7687 10.0093 37.082 10.2507C37.6514 9.93902 38.3051 9.76241 39 9.76241C41.2091 9.76241 43 11.5533 43 13.7624C42.9999 15.4067 42.0073 16.8186 40.5889 17.4333V26.1433C40.5888 29.3585 38.8733 32.3305 36.0889 33.9382L28.5 38.319C28.3342 38.4148 28.1653 38.5033 27.9951 38.5876C27.9976 38.6455 28 38.7039 28 38.7624C27.9998 40.9714 26.209 42.7624 24 42.7624C21.791 42.7624 20.0002 40.9714 20 38.7624C20 38.7039 20.0014 38.6455 20.0039 38.5876C19.834 38.5034 19.6656 38.4146 19.5 38.319L11.9111 33.9382C9.1267 32.3305 7.41123 29.3585 7.41113 26.1433V17.4333C5.99271 16.8186 5.00012 15.4067 5 13.7624C5 11.5533 6.79086 9.76241 9 9.76241C9.69459 9.76241 10.3478 9.93927 10.917 10.2507C11.2306 10.0091 11.5629 9.78772 11.9111 9.58663L19.5 5.20577ZM11.626 16.7771C11.0202 17.3051 10.2551 17.6547 9.41113 17.7409V26.1433C9.41123 28.6439 10.7456 30.9553 12.9111 32.2058L20.5 36.5866C20.5351 36.6069 20.5711 36.6256 20.6064 36.6452C21.1427 35.7873 21.9945 35.1472 23 34.8884V22.9216L11.626 16.7771ZM25 22.9216V34.8884C26.0053 35.1471 26.8563 35.7876 27.3926 36.6452C27.4282 36.6255 27.4646 36.607 27.5 36.5866L35.0889 32.2058C37.2544 30.9553 38.5888 28.6439 38.5889 26.1433V17.7409C37.7446 17.6547 36.9789 17.3054 36.373 16.7771L25 22.9216ZM27.5 6.93819C25.3342 5.68776 22.6658 5.68776 20.5 6.93819L12.9111 11.319C12.7332 11.4218 12.5609 11.5316 12.3945 11.6481C12.7774 12.2617 13 12.9859 13 13.7624C13 14.2384 12.9153 14.6945 12.7627 15.1179L24 21.1882L35.2363 15.1179C35.0838 14.6945 35 14.2383 35 13.7624C35 12.9861 35.2218 12.2616 35.6045 11.6481C35.4383 11.5318 35.2665 11.4216 35.0889 11.319L27.5 6.93819Z" fill="#3131FF"/>
</svg>
