<svg width="48" height="49" viewBox="0 0 48 49" fill="none" xmlns="http://www.w3.org/2000/svg">
<path d="M13.5001 14.7666C14.3285 14.7666 15.0001 14.095 15.0001 13.2666C15.0001 12.4382 14.3285 11.7666 13.5001 11.7666C12.6717 11.7666 12.0001 12.4382 12.0001 13.2666C12.0001 14.095 12.6717 14.7666 13.5001 14.7666Z" fill="#3131FF"/>
<path d="M20.0001 13.2666C20.0001 14.095 19.3285 14.7666 18.5001 14.7666C17.6717 14.7666 17.0001 14.095 17.0001 13.2666C17.0001 12.4382 17.6717 11.7666 18.5001 11.7666C19.3285 11.7666 20.0001 12.4382 20.0001 13.2666Z" fill="#3131FF"/>
<path fill-rule="evenodd" clip-rule="evenodd" d="M28.2775 26.4053C28.2775 27.6939 27.8453 28.8816 27.1178 29.8312L31.7073 34.4207C32.0978 34.8112 32.0978 35.4443 31.7073 35.8349C31.3168 36.2254 30.6836 36.2254 30.2931 35.8349L25.6388 31.1806C24.7699 31.7276 23.7413 32.044 22.6388 32.044C19.5247 32.044 17.0001 29.5195 17.0001 26.4053C17.0001 23.2911 19.5247 20.7666 22.6388 20.7666C25.753 20.7666 28.2775 23.2911 28.2775 26.4053ZM26.2775 26.4053C26.2775 28.4149 24.6484 30.044 22.6388 30.044C20.6292 30.044 19.0001 28.4149 19.0001 26.4053C19.0001 24.3957 20.6292 22.7666 22.6388 22.7666C24.6484 22.7666 26.2775 24.3957 26.2775 26.4053Z" fill="#3131FF"/>
<path fill-rule="evenodd" clip-rule="evenodd" d="M8 12.7666C8 10.5575 9.79086 8.7666 12 8.7666H36C38.2091 8.7666 40 10.5575 40 12.7666V36.7666C40 38.9757 38.2091 40.7666 36 40.7666H12C9.79086 40.7666 8 38.9757 8 36.7666V12.7666ZM12 10.7666H36C37.1046 10.7666 38 11.662 38 12.7666V15.7666H10V12.7666C10 11.662 10.8954 10.7666 12 10.7666ZM10 17.7666V36.7666C10 37.8712 10.8954 38.7666 12 38.7666H36C37.1046 38.7666 38 37.8712 38 36.7666V17.7666H10Z" fill="#3131FF"/>
</svg>
