<svg width="48" height="49" viewBox="0 0 48 49" fill="none" xmlns="http://www.w3.org/2000/svg">
<path d="M8 40.7622V12.7622C8 11.6622 8.39167 10.7205 9.175 9.93721C9.95833 9.15387 10.9 8.76221 12 8.76221H23C24.1 8.76221 25.0417 9.15387 25.825 9.93721C26.6083 10.7205 27 11.6622 27 12.7622V26.7622H29C30.1 26.7622 31.0417 27.1539 31.825 27.9372C32.6083 28.7205 33 29.6622 33 30.7622V35.7622C33 36.3289 33.1917 36.8039 33.575 37.1872C33.9583 37.5705 34.4333 37.7622 35 37.7622C35.5667 37.7622 36.0417 37.5705 36.425 37.1872C36.8083 36.8039 37 36.3289 37 35.7622V25.3622C36.7 25.5289 36.3833 25.6372 36.05 25.6872C35.7167 25.7372 35.3667 25.7622 35 25.7622C33.6 25.7622 32.4167 25.2789 31.45 24.3122C30.4833 23.3455 30 22.1622 30 20.7622C30 19.6955 30.2917 18.7372 30.875 17.8872C31.4583 17.0372 32.2333 16.4289 33.2 16.0622L29 11.8622L31.1 9.76221L38.5 16.9622C39 17.4622 39.375 18.0455 39.625 18.7122C39.875 19.3789 40 20.0622 40 20.7622V35.7622C40 37.1622 39.5167 38.3455 38.55 39.3122C37.5833 40.2789 36.4 40.7622 35 40.7622C33.6 40.7622 32.4167 40.2789 31.45 39.3122C30.4833 38.3455 30 37.1622 30 35.7622V29.7622H27V40.7622H8ZM11 20.7622C11 21.3145 11.4477 21.7622 12 21.7622H23C23.5523 21.7622 24 21.3145 24 20.7622V12.7622C24 12.2099 23.5523 11.7622 23 11.7622H12C11.4477 11.7622 11 12.2099 11 12.7622V20.7622ZM35 22.7622C35.5667 22.7622 36.0417 22.5705 36.425 22.1872C36.8083 21.8039 37 21.3289 37 20.7622C37 20.1955 36.8083 19.7205 36.425 19.3372C36.0417 18.9539 35.5667 18.7622 35 18.7622C34.4333 18.7622 33.9583 18.9539 33.575 19.3372C33.1917 19.7205 33 20.1955 33 20.7622C33 21.3289 33.1917 21.8039 33.575 22.1872C33.9583 22.5705 34.4333 22.7622 35 22.7622Z" fill="#3131FF"/>
</svg>
