<svg width="48" height="49" viewBox="0 0 48 49" fill="none" xmlns="http://www.w3.org/2000/svg">
<path fill-rule="evenodd" clip-rule="evenodd" d="M24 7.76221C26.7614 7.76221 29 10.0008 29 12.7622C29 14.1658 28.4206 15.4332 27.4893 16.3413L29.582 19.9663C30.0316 19.8336 30.5074 19.7622 31 19.7622C33.7614 19.7622 36 22.0008 36 24.7622C36 26.258 35.3418 27.5988 34.3008 28.5151L36.3389 32.0454C36.8587 31.8624 37.4176 31.7622 38 31.7622C40.7614 31.7622 43 34.0008 43 36.7622C43 39.5236 40.7614 41.7622 38 41.7622C35.2386 41.7622 33 39.5236 33 36.7622C33 35.3023 33.6252 33.9878 34.623 33.0737L32.5654 29.5103C32.0728 29.6726 31.547 29.7622 31 29.7622C30.7677 29.7622 30.5393 29.745 30.3154 29.7144L27.9873 33.7466C28.6224 34.585 29 35.6293 29 36.7622C29 39.5236 26.7614 41.7622 24 41.7622C21.2386 41.7622 19 39.5236 19 36.7622C19 35.3023 19.6252 33.9878 20.623 33.0737L18.5654 29.5103C18.0728 29.6726 17.547 29.7622 17 29.7622C16.4527 29.7622 15.9265 29.6728 15.4336 29.5103L13.376 33.0737C14.3742 33.9879 15 35.302 15 36.7622C15 39.5236 12.7614 41.7622 10 41.7622C7.23858 41.7622 5 39.5236 5 36.7622C5 34.0008 7.23858 31.7622 10 31.7622C10.5821 31.7622 11.1406 31.8626 11.6602 32.0454L13.6982 28.5151C12.6576 27.5989 12 26.2578 12 24.7622C12 22.0008 14.2386 19.7622 17 19.7622C17.4922 19.7622 17.9677 19.8338 18.417 19.9663L20.5098 16.3413C19.5787 15.4332 19 14.1655 19 12.7622C19 10.0008 21.2386 7.76221 24 7.76221ZM10 33.7622C8.34315 33.7622 7 35.1054 7 36.7622C7 38.4191 8.34315 39.7622 10 39.7622C11.6569 39.7622 13 38.4191 13 36.7622C13 35.1054 11.6569 33.7622 10 33.7622ZM24 33.7622C22.3431 33.7622 21 35.1054 21 36.7622C21 38.4191 22.3431 39.7622 24 39.7622C25.6569 39.7622 27 38.4191 27 36.7622C27 35.1054 25.6569 33.7622 24 33.7622ZM38 33.7622C36.3431 33.7622 35 35.1054 35 36.7622C35 38.4191 36.3431 39.7622 38 39.7622C39.6569 39.7622 41 38.4191 41 36.7622C41 35.1054 39.6569 33.7622 38 33.7622ZM25.8047 17.4243C25.2447 17.6412 24.6366 17.7622 24 17.7622C23.3631 17.7622 22.7546 17.6415 22.1943 17.4243L20.1836 20.9067C21.293 21.8238 22 23.2104 22 24.7622C22 26.258 21.3418 27.5988 20.3008 28.5151L22.3389 32.0454C22.8587 31.8624 23.4176 31.7622 24 31.7622C24.8914 31.7622 25.7274 31.997 26.4521 32.4058L28.3994 29.0337C26.9605 28.1558 26 26.5711 26 24.7622C26 23.2107 26.7064 21.8238 27.8154 20.9067L25.8047 17.4243ZM17 21.7622C15.3431 21.7622 14 23.1054 14 24.7622C14 26.4191 15.3431 27.7622 17 27.7622C18.6569 27.7622 20 26.4191 20 24.7622C20 23.1054 18.6569 21.7622 17 21.7622ZM31 21.7622C29.3431 21.7622 28 23.1054 28 24.7622C28 26.4191 29.3431 27.7622 31 27.7622C32.6569 27.7622 34 26.4191 34 24.7622C34 23.1054 32.6569 21.7622 31 21.7622ZM24 9.76221C22.3431 9.76221 21 11.1054 21 12.7622C21 14.4191 22.3431 15.7622 24 15.7622C25.6569 15.7622 27 14.4191 27 12.7622C27 11.1054 25.6569 9.76221 24 9.76221Z" fill="#3131FF"/>
</svg>
