<svg width="48" height="49" viewBox="0 0 48 49" fill="none" xmlns="http://www.w3.org/2000/svg">
<path d="M9 9.76221C9 9.20992 9.44772 8.76221 10 8.76221H25.5949C28.3521 8.76221 31.022 9.72886 33.1402 11.494C33.5645 11.8475 33.6218 12.4781 33.2682 12.9024C32.9147 13.3267 32.2841 13.384 31.8598 13.0304C30.1011 11.5648 27.8842 10.7622 25.5949 10.7622H10C9.44772 10.7622 9 10.3145 9 9.76221Z" fill="#3131FF"/>
<path d="M9 39.7622C9 39.2099 9.44772 38.7622 10 38.7622H25.5C26.0523 38.7622 26.5 39.2099 26.5 39.7622C26.5 40.3145 26.0523 40.7622 25.5 40.7622H10C9.44772 40.7622 9 40.3145 9 39.7622Z" fill="#3131FF"/>
<path d="M36.3822 14.6284C36.0322 14.2012 35.4021 14.1387 34.9749 14.4887C34.5477 14.8387 34.4852 15.4688 34.8352 15.896C36.8135 18.3106 37.9999 21.3965 37.9999 24.7622C37.9999 30.3022 34.7822 35.0926 30.1092 37.3627C29.6124 37.6041 29.4053 38.2024 29.6466 38.6992C29.888 39.1959 30.4863 39.403 30.9831 39.1617C36.3186 36.5697 39.9999 31.0968 39.9999 24.7622C39.9999 20.9177 38.6427 17.3874 36.3822 14.6284Z" fill="#3131FF"/>
<path d="M11.5 15.7622C11.5 15.2099 11.9477 14.7622 12.5 14.7622H25.0279C28.1475 14.7622 30.9993 16.5247 32.3944 19.315C32.6414 19.809 32.4412 20.4096 31.9472 20.6566C31.4532 20.9036 30.8526 20.7034 30.6056 20.2094C29.5492 18.0967 27.3899 16.7622 25.0279 16.7622H12.5C11.9477 16.7622 11.5 16.3145 11.5 15.7622Z" fill="#3131FF"/>
<path d="M33.7638 24.7622C33.7638 24.2099 33.3161 23.7622 32.7638 23.7622C32.2115 23.7622 31.7638 24.2099 31.7638 24.7622C31.7638 29.1805 28.1821 32.7622 23.7638 32.7622H12.5C11.9477 32.7622 11.5 33.2099 11.5 33.7622C11.5 34.3145 11.9477 34.7622 12.5 34.7622H23.7638C29.2867 34.7622 33.7638 30.2851 33.7638 24.7622Z" fill="#3131FF"/>
<path d="M13 21.7622C13 21.2099 13.4477 20.7622 14 20.7622H23.5C25.7091 20.7622 27.5 22.5531 27.5 24.7622C27.5 26.9713 25.7091 28.7622 23.5 28.7622H23C22.4477 28.7622 22 28.3145 22 27.7622C22 27.2099 22.4477 26.7622 23 26.7622H23.5C24.6046 26.7622 25.5 25.8668 25.5 24.7622C25.5 23.6576 24.6046 22.7622 23.5 22.7622H14C13.4477 22.7622 13 22.3145 13 21.7622Z" fill="#3131FF"/>
<path d="M14 26.7622C13.4477 26.7622 13 27.2099 13 27.7622C13 28.3145 13.4477 28.7622 14 28.7622H19C19.5523 28.7622 20 28.3145 20 27.7622C20 27.2099 19.5523 26.7622 19 26.7622H14Z" fill="#3131FF"/>
</svg>
