<svg width="48" height="48" viewBox="0 0 48 48" fill="none" xmlns="http://www.w3.org/2000/svg">
<path d="M24 4C26.2091 4 28 5.79086 28 8C28 9.86384 26.7252 11.43 25 11.874V18.084C26.4594 18.3289 27.7398 19.1 28.6396 20.1963L34.1406 17.0527C34.0493 16.7173 34 16.3644 34 16C34 13.7909 35.7909 12 38 12C40.2091 12 42 13.7909 42 16C42 18.2091 40.2091 20 38 20C36.8758 20 35.8605 19.5357 35.1338 18.7891L29.6338 21.9316C29.8706 22.5764 30 23.2731 30 24C30 24.7266 29.8704 25.4228 29.6338 26.0674L35.1338 29.21C35.8604 28.4636 36.8761 28 38 28C40.2091 28 42 29.7909 42 32C42 34.2091 40.2091 36 38 36C35.7909 36 34 34.2091 34 32C34 31.6353 34.0492 31.282 34.1406 30.9463L28.6396 27.8027C27.7398 28.8993 26.4596 29.6701 25 29.915V36.126C26.7252 36.57 28 38.1362 28 40C28 42.2091 26.2091 44 24 44C21.7909 44 20 42.2091 20 40C20 38.1362 21.2748 36.57 23 36.126V29.915C21.5402 29.67 20.2592 28.8996 19.3594 27.8027L13.8584 30.9463C13.9499 31.2821 14 31.6352 14 32C14 34.2091 12.2091 36 10 36C7.79086 36 6 34.2091 6 32C6 29.7909 7.79086 28 10 28C11.1237 28 12.1386 28.4639 12.8652 29.21L18.3652 26.0674C18.1287 25.4229 18 24.7265 18 24C18 23.2732 18.1285 22.5763 18.3652 21.9316L12.8652 18.7891C12.1386 19.5354 11.1239 20 10 20C7.79086 20 6 18.2091 6 16C6 13.7909 7.79086 12 10 12C12.2091 12 14 13.7909 14 16C14 16.3645 13.9497 16.7172 13.8584 17.0527L19.3594 20.1963C20.2592 19.0997 21.5404 18.3289 23 18.084V11.874C21.2748 11.43 20 9.86384 20 8C20 5.79086 21.7909 4 24 4Z" fill="#3131FF"/>
</svg>
