<svg width="48" height="46" viewBox="0 0 48 46" fill="none" xmlns="http://www.w3.org/2000/svg">
<path d="M14 17.7622C13.4477 17.7622 13 18.2099 13 18.7622C13 19.3145 13.4477 19.7622 14 19.7622H32C32.5523 19.7622 33 19.3145 33 18.7622C33 18.2099 32.5523 17.7622 32 17.7622H14Z" fill="#3131FF"/>
<path d="M14 23.7622C13.4477 23.7622 13 24.2099 13 24.7622C13 25.3145 13.4477 25.7622 14 25.7622H24C24.5523 25.7622 25 25.3145 25 24.7622C25 24.2099 24.5523 23.7622 24 23.7622H14Z" fill="#3131FF"/>
<path fill-rule="evenodd" clip-rule="evenodd" d="M25.252 35.7622H11C8.79086 35.7622 7 33.9713 7 31.7622V8.76221C7 6.55307 8.79086 4.76221 11 4.76221H35C37.2091 4.76221 39 6.55307 39 8.76221V28.4706C40.2447 29.8808 41 31.7333 41 33.7622C41 38.1805 37.4183 41.7622 33 41.7622C29.2723 41.7622 26.1401 39.2127 25.252 35.7622ZM11 6.76221H35C36.1046 6.76221 37 7.65764 37 8.76221V26.8325C35.8233 26.1518 34.4571 25.7622 33 25.7622C28.5817 25.7622 25 29.3439 25 33.7622H11C9.89543 33.7622 9 32.8668 9 31.7622V8.76221C9 7.65764 9.89543 6.76221 11 6.76221ZM36.9612 30.7862C37.4079 31.1111 37.5066 31.7365 37.1818 32.1831L34.1785 36.3127C33.4948 37.2528 32.1565 37.414 31.2691 36.6631L29.7271 35.3584C29.3055 35.0016 29.2529 34.3706 29.6097 33.949C29.9664 33.5274 30.5974 33.4748 31.019 33.8316L32.561 35.1364L35.5643 31.0068C35.8891 30.5601 36.5146 30.4614 36.9612 30.7862Z" fill="#3131FF"/>
<path d="M14 11.7622C13.4477 11.7622 13 12.2099 13 12.7622C13 13.3145 13.4477 13.7622 14 13.7622H32C32.5523 13.7622 33 13.3145 33 12.7622C33 12.2099 32.5523 11.7622 32 11.7622H14Z" fill="#3131FF"/>
</svg>
