<svg width="48" height="49" viewBox="0 0 48 49" fill="none" xmlns="http://www.w3.org/2000/svg">
<path fill-rule="evenodd" clip-rule="evenodd" d="M28.0002 9.76221C34.0753 9.76221 39.0002 14.6871 39.0002 20.7622C39.0002 24.8258 36.795 28.3712 33.5178 30.2759C31.5005 32.7622 28.5229 36.2974 26.1115 37.9087C24.7087 38.846 23.1085 39.4482 21.4358 39.6685C19.7631 39.8886 18.0616 39.7205 16.4641 39.1782C14.8666 38.6358 13.4148 37.7335 12.2219 36.5405C11.0289 35.3476 10.1265 33.8959 9.58419 32.2983C9.04189 30.7007 8.87379 28.9994 9.09396 27.3267C9.31418 25.6539 9.91641 24.0537 10.8537 22.6509C12.4645 20.2402 16.2219 17.0809 18.4856 15.2437C20.3903 11.9667 23.9369 9.76228 28.0002 9.76221ZM13.1565 22.9185C12.9276 23.1864 12.7135 23.4678 12.5168 23.7622C11.75 24.91 11.2575 26.2189 11.0774 27.5874C10.8972 28.9559 11.0341 30.3477 11.4777 31.6548C11.9215 32.962 12.6599 34.1503 13.636 35.1265C14.6121 36.1026 15.8005 36.8409 17.1076 37.2847C18.4147 37.7283 19.8065 37.8652 21.175 37.6851C22.5435 37.5049 23.8525 37.0124 25.0002 36.2456C25.2948 36.0488 25.5759 35.8339 25.844 35.605C25.7084 35.628 25.5724 35.6505 25.4358 35.6685C23.7631 35.8886 22.0616 35.7205 20.4641 35.1782C18.8666 34.6358 17.4148 33.7335 16.2219 32.5405C15.0289 31.3476 14.1265 29.8959 13.5842 28.2983C13.0419 26.7007 12.8738 24.9994 13.094 23.3267C13.1119 23.19 13.1334 23.054 13.1565 22.9185ZM17.1565 18.9175C16.9275 19.1856 16.7137 19.4676 16.5168 19.7622C15.75 20.91 15.2575 22.2189 15.0774 23.5874C14.8972 24.9559 15.0341 26.3477 15.4777 27.6548C15.9215 28.962 16.6599 30.1503 17.636 31.1265C18.6121 32.1026 19.8005 32.8409 21.1076 33.2847C22.4147 33.7283 23.8065 33.8652 25.175 33.6851C26.5435 33.5049 27.8525 33.0124 29.0002 32.2456C29.295 32.0486 29.5767 31.8341 29.8449 31.605C29.245 31.7063 28.6289 31.7622 28.0002 31.7622C21.9252 31.7621 17.0002 26.8373 17.0002 20.7622C17.0002 20.1335 17.0551 19.5174 17.1565 18.9175ZM28.0002 11.7622C23.0297 11.7623 19.0002 15.7917 19.0002 20.7622C19.0002 25.7327 23.0297 29.7621 28.0002 29.7622C32.9708 29.7622 37.0002 25.7328 37.0002 20.7622C37.0002 15.7916 32.9708 11.7622 28.0002 11.7622Z" fill="#3131FF"/>
</svg>
