<svg width="48" height="49" viewBox="0 0 48 49" fill="none" xmlns="http://www.w3.org/2000/svg">
<path d="M28.9425 31.4972C28.539 31.1201 28.5176 30.4873 28.8947 30.0838L31.9407 26.8246L28.8947 23.5653C28.5176 23.1618 28.539 22.529 28.9425 22.1519C29.346 21.7748 29.9788 21.7962 30.3559 22.1997L34.0401 26.1418C34.3993 26.5261 34.3993 27.123 34.0401 27.5074L30.3559 31.4494C29.9788 31.8529 29.346 31.8743 28.9425 31.4972Z" fill="#3131FF"/>
<path d="M19.1454 30.0838C19.5225 30.4873 19.5011 31.1201 19.0976 31.4972C18.6941 31.8743 18.0612 31.8529 17.6841 31.4494L14 27.5074C13.6408 27.123 13.6408 26.5261 14 26.1418L17.6841 22.1997C18.0612 21.7962 18.6941 21.7748 19.0976 22.1519C19.5011 22.529 19.5225 23.1618 19.1454 23.5653L16.0993 26.8246L19.1454 30.0838Z" fill="#3131FF"/>
<path d="M21.1449 31.7295C20.6131 31.5804 20.3029 31.0284 20.452 30.4966L25.6625 22.6125C25.8116 22.0808 26.3636 21.7705 26.8953 21.9196C27.4271 22.0687 27.7373 22.6207 27.5882 23.1525L22.3778 31.0366C22.2287 31.5683 21.6767 31.8786 21.1449 31.7295Z" fill="#3131FF"/>
<path fill-rule="evenodd" clip-rule="evenodd" d="M41 34.7666C41 36.9757 39.2091 38.7666 37 38.7666H11C8.79086 38.7666 7 36.9757 7 34.7666V14.7666C7 12.5575 8.79086 10.7666 11 10.7666H37C39.2091 10.7666 41 12.5575 41 14.7666V34.7666ZM14.5 36.7666H11C9.89543 36.7666 9 35.8712 9 34.7666V17.7666C9 17.2143 9.44771 16.7666 10 16.7666H38C38.5523 16.7666 39 17.2143 39 17.7666V34.7666C39 35.8712 38.1046 36.7666 37 36.7666H33.7304C27.9408 36.7666 21.3359 36.7666 14.5 36.7666Z" fill="#3131FF"/>
</svg>
