<svg width="48" height="49" viewBox="0 0 48 49" fill="none" xmlns="http://www.w3.org/2000/svg">
<path d="M34 24.7667C35.6569 24.7667 37 26.1098 37 27.7667C36.9998 29.4234 35.6567 30.7667 34 30.7667C32.3433 30.7667 31.0002 29.4234 31 27.7667C31 26.1098 32.3431 24.7667 34 24.7667Z" fill="#3131FF"/>
<path fill-rule="evenodd" clip-rule="evenodd" d="M33.0225 8.80478C34.8461 8.51071 35.9998 9.76608 36 11.7657V14.7667L36.3086 14.7745C39.4789 14.9351 42 17.5565 42 20.7667V34.7667C41.9998 37.9767 39.4788 40.5983 36.3086 40.7589L36 40.7667H12C8.78993 40.7667 6.16863 38.2454 6.00781 35.0753L6 34.7667V20.7667C6 20.4302 6.02877 20.0999 6.08203 19.7784L6 19.8761C6.00003 16.9312 8.13759 14.4212 11.0449 13.9522L33.0225 8.80478ZM12 16.7667C9.79086 16.7667 8 18.5576 8 20.7667V34.7667C8.00022 36.9756 9.791 38.7667 12 38.7667H36C38.209 38.7667 39.9998 36.9756 40 34.7667V20.7667C40 18.5576 38.2091 16.7667 36 16.7667H12Z" fill="#3131FF"/>
</svg>
